<?xml version="1.0" encoding="utf-8"?>
<!-- Generator: Adobe Illustrator 28.3.0, SVG Export Plug-In . SVG Version: 6.00 Build 0)  -->
<svg version="1.1" id="Layer_1" xmlns="http://www.w3.org/2000/svg" xmlns:xlink="http://www.w3.org/1999/xlink" x="0px" y="0px"
	 viewBox="0 0 278.48 113.68" style="enable-background:new 0 0 278.48 113.68;" xml:space="preserve">
<style type="text/css">
	.st0{fill:#fff;}
</style>
<g>
	<g>
		<path class="st0" d="M101.79,113.68H71.92c-0.94,0-1.77-0.63-2.03-1.53l-8.58-31.21c-0.58-2.04-3.47-2.04-4.05,0l-8.58,31.21
			c-0.26,0.91-1.08,1.53-2.03,1.53H16.78c-1.86,0-3.38-1.51-3.38-3.38L0,3.38C0,1.51,1.51,0,3.38,0h19.55c1.07,0,1.97,0.8,2.09,1.87
			l6.14,41.29c0.27,2.4,3.72,2.52,4.16,0.15L45.91,1.72c0.19-1,1.06-1.72,2.07-1.72h22.62c1.01,0,1.88,0.72,2.07,1.72l10.62,41.72
			c0.44,2.37,3.88,2.26,4.16-0.14L93.7,1.86C93.82,0.8,94.72,0,95.79,0h19.41c1.86,0,3.38,1.51,3.38,3.38l-13.4,106.92
			C105.16,112.16,103.65,113.68,101.79,113.68z"/>
	</g>
	<g>
		<path class="st0" d="M154.7,37.16h-8.35c-2.07,0-3.95,1.67-4.2,3.74l-4.39,35.72c-0.25,2.07,1.22,3.74,3.28,3.74h8.64
			c11.65,0,22.45-9.88,23.9-21.67C175.05,46.75,166.49,37.16,154.7,37.16z"/>
	</g>
	<g>
		<path class="st0" d="M264.72,56.61c-1.18-0.79-1.13-2.53,0.08-3.41c7.69-5.58,12.26-13.25,12.26-22.39
			C277.06,13.83,262.88,0,241.79,0h-61.19c-1.14,0-2.12,0.92-2.19,2.06l-0.01,0.15c-0.05,0.85,0.42,1.59,1.19,1.91
			c20.36,8.43,33.85,28.9,32.37,52.79c-1.48,23.81-17.53,44.42-38.93,52.79c-0.81,0.32-1.38,1.06-1.43,1.91v0
			c-0.07,1.14,0.8,2.06,1.94,2.06h67.97c21.08,0,36.98-12.06,36.98-28.46C278.48,70.34,273.18,62.25,264.72,56.61z M227.7,32.92
			c0-1.52,1.23-2.75,2.75-2.75h12.45c4.54,0,6.99,3.49,6.99,6.99s-2.45,6.99-6.99,6.99h-12.45c-1.52,0-2.75-1.23-2.75-2.75V32.92z
			 M244.47,88.31h-14.02c-1.52,0-2.75-1.23-2.75-2.75v-10.4c0-1.52,1.23-2.75,2.75-2.75h14.02c5.24,0,7.86,4.02,7.86,8.04
			C252.33,84.29,249.71,88.31,244.47,88.31z"/>
	</g>
</g>
</svg>
