<?xml version="1.0" encoding="utf-8"?>
<!-- Generator: Adobe Illustrator 28.3.0, SVG Export Plug-In . SVG Version: 6.00 Build 0)  -->
<svg version="1.1" id="Layer_1" xmlns="http://www.w3.org/2000/svg" xmlns:xlink="http://www.w3.org/1999/xlink" x="0px" y="0px"
	 viewBox="0 0 278.48 145.64" style="enable-background:new 0 0 278.48 145.64;" xml:space="preserve">
<style type="text/css">
	.st0{fill:#fff;}
</style>
<g>
	<g>
		<path class="st0" d="M101.79,113.68H71.92c-0.94,0-1.77-0.63-2.03-1.53l-8.58-31.21c-0.58-2.04-3.47-2.04-4.05,0l-8.58,31.21
			c-0.26,0.91-1.08,1.53-2.03,1.53H16.78c-1.86,0-3.38-1.51-3.38-3.38L0,3.38C0,1.51,1.51,0,3.38,0h19.55c1.07,0,1.97,0.8,2.09,1.87
			l6.14,41.29c0.27,2.4,3.72,2.52,4.16,0.15L45.91,1.72c0.19-1,1.06-1.72,2.07-1.72h22.62c1.01,0,1.88,0.72,2.07,1.72l10.62,41.72
			c0.44,2.37,3.88,2.26,4.16-0.14L93.7,1.86C93.82,0.8,94.72,0,95.79,0h19.41c1.86,0,3.38,1.51,3.38,3.38l-13.4,106.92
			C105.16,112.16,103.65,113.68,101.79,113.68z"/>
	</g>
	<g>
		<path class="st0" d="M154.7,37.16h-8.35c-2.07,0-3.95,1.67-4.2,3.74l-4.39,35.72c-0.25,2.07,1.22,3.74,3.28,3.74h8.64
			c11.65,0,22.45-9.88,23.9-21.67C175.05,46.75,166.49,37.16,154.7,37.16z"/>
	</g>
	<g>
		<path class="st0" d="M264.72,56.61c-1.18-0.79-1.13-2.53,0.08-3.41c7.69-5.58,12.26-13.25,12.26-22.39
			C277.06,13.83,262.88,0,241.79,0h-61.19c-1.14,0-2.12,0.92-2.19,2.06l-0.01,0.15c-0.05,0.85,0.42,1.59,1.19,1.91
			c20.36,8.43,33.85,28.9,32.37,52.79c-1.48,23.81-17.53,44.42-38.93,52.79c-0.81,0.32-1.38,1.06-1.43,1.91v0
			c-0.07,1.14,0.8,2.06,1.94,2.06h67.97c21.08,0,36.98-12.06,36.98-28.46C278.48,70.34,273.18,62.25,264.72,56.61z M227.7,32.92
			c0-1.52,1.23-2.75,2.75-2.75h12.45c4.54,0,6.99,3.49,6.99,6.99s-2.45,6.99-6.99,6.99h-12.45c-1.52,0-2.75-1.23-2.75-2.75V32.92z
			 M244.47,88.31h-14.02c-1.52,0-2.75-1.23-2.75-2.75v-10.4c0-1.52,1.23-2.75,2.75-2.75h14.02c5.24,0,7.86,4.02,7.86,8.04
			C252.33,84.29,249.71,88.31,244.47,88.31z"/>
	</g>
</g>
<g>
	<path class="st0" d="M28.8,132.21l1.01-5.64c0.09-0.48,0.51-0.83,1-0.83h3.36c0.65,0,1.13,0.6,0.99,1.23l-3.9,17.89
		c-0.1,0.47-0.51,0.8-0.99,0.8h-4.26c-0.47,0-0.88-0.33-0.99-0.79l-1.15-5.06c-0.24-1.06-1.75-1.05-1.98,0.01l-1.1,5.04
		c-0.1,0.47-0.51,0.8-0.99,0.8h-4.23c-0.48,0-0.89-0.33-0.99-0.79l-3.94-17.89c-0.14-0.63,0.34-1.23,0.99-1.23h3.41
		c0.49,0,0.91,0.35,1,0.84l0.97,5.51c0.19,1.1,1.76,1.12,1.99,0.03l1.17-5.58c0.1-0.47,0.51-0.81,0.99-0.81h3.43
		c0.48,0,0.89,0.33,0.99,0.8l1.23,5.71C27.05,133.33,28.61,133.3,28.8,132.21z"/>
	<path class="st0" d="M46.8,139.19h-4.24c-0.56,0-1.01,0.45-1.01,1.01v0.87c0,0.56,0.45,1.01,1.01,1.01h5.4
		c0.56,0,1.01,0.45,1.01,1.01v1.53c0,0.56-0.45,1.01-1.01,1.01H37.94c-0.56,0-1.01-0.45-1.01-1.01v-13.9c0-0.56,0.45-1.01,1.01-1.01
		h10.09c0.56,0,1.01,0.45,1.01,1.01v1.53c0,0.56-0.45,1.01-1.01,1.01h-5.47c-0.56,0-1.01,0.45-1.01,1.01v0.34
		c0,0.56,0.45,1.01,1.01,1.01h4.24c0.56,0,1.01,0.45,1.01,1.01v1.53C47.81,138.73,47.36,139.19,46.8,139.19z"/>
	<path class="st0" d="M50.53,144.63v-13.9c0-0.56,0.45-1.01,1.01-1.01h5.39c2.27,0,4,0.38,5.19,1.13c1.19,0.75,1.78,1.85,1.78,3.28
		c0,1.76-0.79,2.93-2.37,3.51c0.85,0.21,1.51,0.62,1.99,1.24c0.48,0.62,0.72,1.35,0.72,2.2c0,1.54-0.53,2.69-1.58,3.43
		s-2.69,1.12-4.92,1.14h-6.21C50.99,145.64,50.53,145.19,50.53,144.63z M55.16,135.29c0,0.56,0.45,1.01,1.01,1.01h1.18
		c0.7-0.01,1.2-0.13,1.5-0.38c0.3-0.24,0.44-0.6,0.44-1.09c0-0.57-0.15-0.98-0.46-1.22s-0.79-0.36-1.44-0.36h-1.22
		c-0.56,0-1.01,0.45-1.01,1.01V135.29z M55.16,140.2v0.87c0,0.56,0.45,1.01,1.01,1.01h1.42c0.63,0,1.13-0.13,1.49-0.38
		s0.55-0.59,0.55-1.02c0-0.96-0.56-1.46-1.68-1.5h-1.78C55.61,139.19,55.16,139.64,55.16,140.2z"/>
	<path class="st0" d="M66.48,144.65v-17.94c0-0.54,0.44-0.99,0.99-0.99h6.14c1.89,0,3.61,0.41,5.14,1.24
		c1.54,0.83,2.74,1.98,3.61,3.45c0.87,1.48,1.3,3.11,1.3,4.91v0.7c0,1.79-0.42,3.42-1.26,4.88c-0.84,1.46-2.02,2.62-3.52,3.45
		c-1.5,0.84-3.17,1.26-5.01,1.27h-6.4C66.92,145.64,66.48,145.2,66.48,144.65z M72.25,131.16v9.05c0,0.54,0.44,0.99,0.99,0.99h0.54
		c1.42,0,2.45-0.36,3.08-1.08c0.63-0.72,0.96-1.96,0.99-3.72v-1.09c0-1.87-0.32-3.18-0.95-3.94c-0.63-0.76-1.65-1.16-3.05-1.2h-0.6
		C72.7,130.17,72.25,130.61,72.25,131.16z"/>
	<path class="st0" d="M95.5,139.19H91.2c-0.54,0-0.99,0.44-0.99,0.99v0.93c0,0.54,0.44,0.99,0.99,0.99h5.45
		c0.54,0,0.99,0.44,0.99,0.99v1.58c0,0.54-0.44,0.99-0.99,0.99H86.58c-0.54,0-0.99-0.44-0.99-0.99V130.7c0-0.54,0.44-0.99,0.99-0.99
		h10.14c0.54,0,0.99,0.44,0.99,0.99v1.58c0,0.54-0.44,0.99-0.99,0.99H91.2c-0.54,0-0.99,0.44-0.99,0.99v0.39
		c0,0.54,0.44,0.99,0.99,0.99h4.29c0.54,0,0.99,0.44,0.99,0.99v1.58C96.48,138.75,96.04,139.19,95.5,139.19z"/>
	<path class="st0" d="M108.3,141.29c0-0.48-0.21-0.87-0.63-1.16s-1.16-0.56-2.21-0.8s-1.94-0.51-2.65-0.78s-1.31-0.6-1.77-0.98
		s-0.81-0.83-1.03-1.36s-0.33-1.17-0.33-1.91c0-0.92,0.27-1.75,0.8-2.48s1.28-1.3,2.23-1.71c0.95-0.41,2.01-0.61,3.17-0.61
		c2.08,0,3.73,0.45,4.96,1.35c0.87,0.64,1.44,1.44,1.69,2.4c0.17,0.63-0.3,1.26-0.95,1.26h-2.72c-0.38,0-0.76-0.2-0.89-0.56
		c-0.1-0.26-0.27-0.5-0.51-0.71c-0.41-0.36-0.92-0.53-1.54-0.53c-0.57,0-1.04,0.14-1.39,0.42s-0.53,0.6-0.53,0.98
		c0,0.41,0.18,0.74,0.54,0.98s1,0.49,1.91,0.72c2.27,0.47,3.87,1.12,4.79,1.95s1.39,1.96,1.39,3.4c0,1.46-0.57,2.61-1.71,3.45
		s-2.7,1.26-4.69,1.26c-1.38,0-2.61-0.22-3.69-0.65s-1.92-1.05-2.51-1.86c-0.36-0.5-0.61-1.05-0.75-1.67
		c-0.14-0.62,0.32-1.22,0.96-1.22h2.66c0.47,0,0.85,0.35,0.96,0.8c0.1,0.4,0.28,0.7,0.55,0.91c0.42,0.33,1.13,0.49,2.13,0.49
		c0.56,0,0.99-0.12,1.3-0.37C108.15,142.04,108.3,141.7,108.3,141.29z"/>
	<path class="st0" d="M118.73,145.64h-2.64c-0.54,0-0.99-0.44-0.99-0.99V130.7c0-0.54,0.44-0.99,0.99-0.99h2.64
		c0.54,0,0.99,0.44,0.99,0.99v13.96C119.72,145.2,119.28,145.64,118.73,145.64z"/>
	<path class="st0" d="M136.66,143.29c0,0.3-0.12,0.59-0.36,0.77c-0.67,0.51-1.53,0.92-2.6,1.24c-1.27,0.38-2.62,0.57-4.07,0.57
		c-2.29,0-4.1-0.64-5.45-1.91s-2.07-3.06-2.17-5.35l-0.01-1.3c0-1.58,0.31-2.96,0.92-4.14s1.49-2.09,2.62-2.73s2.42-0.96,3.87-0.96
		c2.21,0,3.91,0.47,5.12,1.4c0.94,0.73,1.58,1.76,1.9,3.1c0.15,0.61-0.34,1.2-0.97,1.2H133c-0.43,0-0.8-0.29-0.94-0.7
		c-0.14-0.41-0.34-0.73-0.61-0.95c-0.4-0.33-1.03-0.5-1.87-0.5c-0.92,0-1.65,0.36-2.18,1.09c-0.53,0.73-0.8,1.78-0.8,3.14v0.79
		c0,1.49,0.27,2.57,0.81,3.24s1.4,1,2.58,1c0.48,0,0.89-0.04,1.23-0.12c0.45-0.1,0.78-0.5,0.78-0.97v-0.31
		c0-0.54-0.44-0.99-0.99-0.99h-0.76c-0.54,0-0.99-0.44-0.99-0.99v-1.09c0-0.54,0.44-0.99,0.99-0.99h5.41c0.54,0,0.99,0.44,0.99,0.99
		V143.29z"/>
	<path class="st0" d="M152.69,145.64h-3.05c-0.35,0-0.68-0.19-0.85-0.49l-3.25-5.61c-0.51-0.87-1.84-0.51-1.84,0.49v4.62
		c0,0.54-0.44,0.99-0.99,0.99h-2.65c-0.54,0-0.99-0.44-0.99-0.99V130.7c0-0.54,0.44-0.99,0.99-0.99h3.07c0.35,0,0.68,0.19,0.85,0.49
		l3.25,5.61c0.51,0.87,1.84,0.51,1.84-0.49v-4.62c0-0.54,0.44-0.99,0.99-0.99h2.64c0.54,0,0.99,0.44,0.99,0.99v13.96
		C153.68,145.2,153.23,145.64,152.69,145.64z"/>
	<path class="st0" d="M161.97,144.64v-17.92c0-0.55,0.45-1,1-1h7c2.84,0,5,0.47,6.49,1.41c1.49,0.94,2.23,2.31,2.23,4.1
		c0,1.54-0.48,2.71-1.45,3.53c-0.49,0.42-0.4,1.21,0.13,1.58c0.32,0.23,0.61,0.5,0.85,0.82c0.6,0.77,0.9,1.69,0.9,2.75
		c0,1.93-0.66,3.36-1.97,4.29c-1.32,0.93-3.36,1.41-6.14,1.43h-8.03C162.42,145.64,161.97,145.19,161.97,144.64z M167.75,132.97
		c0,0.55,0.45,1,1,1h1.74c0.88-0.01,1.5-0.17,1.87-0.47c0.37-0.3,0.56-0.75,0.56-1.36c0-0.72-0.19-1.22-0.57-1.52
		c-0.38-0.3-0.98-0.45-1.8-0.45h-1.79c-0.55,0-1,0.45-1,1V132.97z M167.75,138.57v1.63c0,0.55,0.45,1,1,1h2.05
		c0.79,0,1.41-0.16,1.86-0.47c0.46-0.32,0.68-0.74,0.68-1.28c0-1.2-0.7-1.83-2.1-1.87h-2.49
		C168.19,137.57,167.75,138.02,167.75,138.57z"/>
	<path class="st0" d="M187.12,140.36h-0.22c-0.55,0-1,0.45-1,1v3.29c0,0.55-0.45,1-1,1h-2.63c-0.55,0-1-0.45-1-1v-13.94
		c0-0.55,0.45-1,1-1h6.05c2.07,0,3.69,0.42,4.85,1.25s1.75,2,1.75,3.49c0,1.16-0.22,2.11-0.67,2.84c-0.32,0.53-0.8,1-1.43,1.4
		c-0.44,0.28-0.59,0.85-0.34,1.31l2.99,5.45v0.18h-4.38c-0.37,0-0.71-0.2-0.88-0.53l-2.22-4.21
		C187.83,140.57,187.49,140.36,187.12,140.36z M185.9,135.81c0,0.55,0.45,1,1,1h1.42c1.33,0,2-0.6,2-1.8c0-1.16-0.71-1.74-2.13-1.74
		h-1.29c-0.55,0-1,0.45-1,1V135.81z"/>
	<path class="st0" d="M207.15,139.19h-4.27c-0.55,0-1,0.45-1,1v0.91c0,0.55,0.45,1,1,1h5.43c0.55,0,1,0.45,1,1v1.56
		c0,0.55-0.45,1-1,1h-10.05c-0.55,0-1-0.45-1-1v-13.94c0-0.55,0.45-1,1-1h10.12c0.55,0,1,0.45,1,1v1.56c0,0.55-0.45,1-1,1h-5.5
		c-0.55,0-1,0.45-1,1v0.37c0,0.55,0.45,1,1,1h4.27c0.55,0,1,0.45,1,1v1.56C208.15,138.74,207.7,139.19,207.15,139.19z"/>
	<path class="st0" d="M219.25,141.18l0.04,0.26l0.04-0.21l3.15-10.81c0.12-0.42,0.51-0.72,0.96-0.72h2.66
		c0.69,0,1.17,0.68,0.94,1.33l-4.9,13.94c-0.14,0.4-0.52,0.67-0.94,0.67h-3.78c-0.42,0-0.8-0.27-0.94-0.67l-4.87-13.94
		c-0.23-0.65,0.25-1.32,0.94-1.32h2.65c0.44,0,0.83,0.29,0.96,0.72L219.25,141.18z"/>
	<path class="st0" d="M235.42,142.85h-4.28c-0.43,0-0.81,0.27-0.94,0.68l-0.49,1.44c-0.14,0.4-0.52,0.68-0.94,0.68h-2.45
		c-0.7,0-1.18-0.7-0.93-1.36l5.4-13.94c0.15-0.38,0.52-0.64,0.93-0.64h3.07c0.41,0,0.78,0.25,0.93,0.63l5.5,13.94
		c0.26,0.65-0.22,1.36-0.93,1.36h-2.47c-0.42,0-0.8-0.27-0.94-0.66l-0.52-1.46C236.22,143.12,235.85,142.85,235.42,142.85z
		 M232.87,139.71h0.74c0.69,0,1.17-0.68,0.94-1.33l-1.27-3.59l-0.07-0.3l-0.05,0.27l-1.23,3.63
		C231.71,139.04,232.19,139.71,232.87,139.71z"/>
	<path class="st0" d="M249.65,140.36h-0.22c-0.55,0-1,0.45-1,1v3.29c0,0.55-0.45,1-1,1h-2.63c-0.55,0-1-0.45-1-1v-13.94
		c0-0.55,0.45-1,1-1h6.05c2.07,0,3.69,0.42,4.85,1.25c1.17,0.83,1.75,2,1.75,3.49c0,1.16-0.22,2.11-0.67,2.84
		c-0.32,0.53-0.8,1-1.43,1.4c-0.44,0.28-0.59,0.85-0.34,1.31l2.99,5.45v0.18h-4.38c-0.37,0-0.71-0.2-0.88-0.53l-2.22-4.21
		C250.36,140.57,250.02,140.36,249.65,140.36z M248.43,135.81c0,0.55,0.45,1,1,1h1.42c1.33,0,2-0.6,2-1.8
		c0-1.16-0.71-1.74-2.13-1.74h-1.29c-0.55,0-1,0.45-1,1V135.81z"/>
	<path class="st0" d="M259.79,145.64v-15.93h5.7c1.51,0,2.88,0.33,4.12,0.99s2.19,1.58,2.88,2.76s1.04,2.49,1.04,3.93v0.56
		c0,1.43-0.34,2.73-1.01,3.9s-1.61,2.09-2.82,2.76s-2.54,1.01-4.01,1.02H259.79z M264.42,133.27v8.82h1.22
		c1.14,0,1.96-0.29,2.46-0.86s0.77-1.56,0.79-2.98v-0.87c0-1.49-0.25-2.54-0.76-3.15c-0.51-0.61-1.32-0.93-2.44-0.96H264.42z"/>
</g>
</svg>
